<svg xmlns="http://www.w3.org/2000/svg" xmlns:xlink="http://www.w3.org/1999/xlink" xmlns:lucid="lucid" width="1760" height="1360"><g transform="translate(0 0)" lucid:page-tab-id="0_0"><path d="M0 0h1760v1360H0z" fill="#fff"/><path d="M720 388a8 8 0 0 1 8-8h544a8 8 0 0 1 8 8v624a8 8 0 0 1-8 8H728a8 8 0 0 1-8-8z" stroke="#dd3522" fill="#fff" fill-opacity="0"/><use xlink:href="#a" transform="matrix(1,0,0,1,720.0000000000002,400) translate(220.075 14.4)"/><use xlink:href="#b" transform="matrix(1,0,0,1,720.0000000000002,400) translate(289.975 14.4)"/><path d="M180 441.5h1461.25V980H180z" fill="#fff" fill-opacity="0"/><path d="M192.04 441.5h8.03m8.03 0h8.03m8.03 0h8.03m8.02 0h8.03m8.02 0h8.03m8.03 0h8.03m8.03 0h8.02m8.03 0h8.03m8.02 0h8.03m8.03 0h8.03m8.02 0h8.03m8.03 0h8.03m8.04 0h8.02m8.03 0h8.02m8.03 0h8.03m8.03 0h8.04m8.03 0H457m8.02 0h8.03m8.03 0h8.03m8.04 0h8.03m8.03 0h8.03m8.02 0h8.03m8.03 0h8.04m8.03 0h8.03m8.03 0h8.03m8.03 0h8m8.04 0h8.03m8.03 0h8.03m8.03 0h8.03m8.02 0h8.03m8.02 0h8.03m8.03 0h8.03m8.03 0h8.02m8.03 0h8.03m8.02 0h8.03m8.03 0h8.03m8.02 0h8.03m8.03 0h8.03m8.04 0h8.02m8.03 0h8.02m8.03 0h8.03m8.03 0h8.04m8.03 0h8.03m8.02 0h8.03m8.03 0h8.03m8.04 0h8.03m8.03 0h8.03m8.02 0h8.03m8.03 0h8.04m8.03 0h8.03m8.03 0h8.03m8.03 0h8m8.04 0h8.03m8.03 0h8.03m8.03 0h8.03m8.02 0h8.03m8.02 0h8.03m8.03 0h8.03m8.03 0h8.02m8.03 0h8.03m8.02 0h8.03m8.03 0h8.03m8.02 0h8.03m8.03 0h8.03m8.04 0h8.02m8.03 0h8.02m8.03 0h8.03m8.03 0h8.04m8.03 0h8.03m8.02 0h8.03m8.03 0h8.03m8.04 0h8.03m8.03 0h8.03m8.02 0h8.03m8.03 0h8.04m8.03 0h8.03m8.03 0h8.03m8.03 0h8m8.04 0h8.03m8.03 0h8.03m8.03 0h8.03m8.02 0h8.03m8.02 0h8.03m8.03 0h8.03m8.03 0h8.02m8.03 0h8.03m8.02 0h8.03m8.03 0h8.03m8.02 0h8.03m8.03 0h8.03m8.04 0h4v3.96m0 7.92v7.92m0 7.92v7.92m0 7.92v7.92m0 7.92v7.92m0 7.92v7.92m0 7.9v7.93m0 7.9v7.93m0 7.92v7.92m0 7.92v7.9m0 7.93v7.92m0 7.9v7.93m0 7.92v7.92m0 7.92v7.92m0 7.92v7.92m0 7.92v7.92m0 7.92v7.9m0 7.93v7.9m0 7.93v7.92m0 7.92v7.92m0 7.9v7.93m0 7.92v7.9m0 7.93v7.92m0 7.92v7.92m0 7.92v7.92m0 7.92v7.92m0 7.92v7.9m0 7.93v7.92m0 7.9v7.93m0 7.92v7.92m0 7.92v7.9m0 7.93v7.92m0 7.9v7.93m0 7.92v7.92m0 7.92V980h-4m-8.03 0h-8.02m-8.03 0h-8.03m-8.03 0h-8.04m-8.03 0H1573m-8.02 0h-8.03m-8.03 0h-8.03m-8.04 0h-8.03m-8.03 0h-8.03m-8.02 0h-8.03m-8.03 0h-8.04m-8.03 0h-8.03m-8.03 0h-8.03m-8.03 0h-8m-8.04 0h-8.03m-8.03 0h-8.03m-8.03 0h-8.03m-8.02 0h-8.03m-8.02 0h-8.03m-8.03 0h-8.03m-8.03 0h-8.02m-8.03 0h-8.03m-8.02 0h-8.03m-8.03 0h-8.03m-8.02 0h-8.03m-8.03 0h-8.03m-8.04 0h-8.02m-8.03 0h-8.02m-8.03 0h-8.03m-8.03 0h-8.04m-8.03 0h-8.03m-8.02 0h-8.03m-8.03 0h-8.03m-8.04 0h-8.03m-8.03 0h-8.03m-8.02 0h-8.03m-8.03 0h-8.04m-8.03 0h-8.03m-8.03 0h-8.03m-8.03 0h-8m-8.04 0h-8.03m-8.03 0h-8.03m-8.03 0h-8.03m-8.02 0h-8.03m-8.02 0h-8.03m-8.03 0h-8.03m-8.03 0h-8.02m-8.03 0h-8.03m-8.02 0h-8.03m-8.03 0h-8.03m-8.02 0h-8.03m-8.03 0h-8.03m-8.04 0h-8.02m-8.03 0h-8.02m-8.03 0h-8.03m-8.03 0h-8.04m-8.03 0H738m-8.02 0h-8.03m-8.03 0h-8.03m-8.04 0h-8.03m-8.03 0h-8.03m-8.02 0h-8.03m-8.03 0h-8.04m-8.03 0h-8.03m-8.03 0h-8.03m-8.03 0h-8m-8.04 0h-8.03m-8.03 0h-8.03m-8.03 0h-8.03m-8.02 0h-8.03m-8.02 0h-8.03m-8.03 0h-8.03m-8.03 0h-8.02m-8.03 0h-8.03m-8.02 0h-8.03m-8.03 0h-8.03m-8.02 0h-8.03m-8.03 0h-8.03m-8.04 0h-8.02m-8.03 0h-8.02m-8.03 0h-8.03m-8.03 0h-8.04m-8.03 0h-8.03m-8.02 0h-8.03m-8.03 0h-8.03m-8.04 0h-8.03m-8.03 0h-8.03m-8.02 0h-8.03m-8.03 0h-8.04m-8.03 0h-8.03m-8.03 0h-8.03m-8.03 0h-4v-3.96m0-7.92v-7.92m0-7.92v-7.92m0-7.9v-7.93m0-7.92v-7.9m0-7.93v-7.92m0-7.92V881m0-7.9v-7.93m0-7.92v-7.9m0-7.93v-7.92m0-7.92v-7.92m0-7.92v-7.92m0-7.92v-7.92m0-7.92v-7.9m0-7.93v-7.92m0-7.9v-7.93m0-7.92v-7.92m0-7.92v-7.9m0-7.93v-7.9m0-7.93v-7.92m0-7.92v-7.92m0-7.92v-7.92m0-7.92v-7.92m0-7.92v-7.92m0-7.9v-7.93m0-7.92v-7.9m0-7.93v-7.92m0-7.92v-7.92m0-7.9v-7.93m0-7.9v-7.93m0-7.92v-7.92m0-7.92v-7.92m0-7.92v-7.92m0-7.92v-7.92m0-7.92v-3.95h4" stroke="#147eba" stroke-width="2" fill="none"/><path d="M180.13 980V441.5h44.4V980z" stroke="#000" stroke-opacity="0" stroke-width="2" fill="#fff" fill-opacity="0"/><use xlink:href="#c" transform="matrix(6.123233995736766e-17,-1,1,6.123233995736766e-17,185.13363785112222,975) translate(185.48765432098764 34.410222222222224)"/><use xlink:href="#d" transform="matrix(6.123233995736766e-17,-1,1,6.123233995736766e-17,185.13363785112222,975) translate(283.462962962963 34.410222222222224)"/><use xlink:href="#e" transform="matrix(6.123233995736766e-17,-1,1,6.123233995736766e-17,185.13363785112222,975) translate(330.7222222222223 34.410222222222224)"/><path d="M441.25 460H1540v466.9H441.25z" fill="#248814" fill-opacity=".13"/><path d="M441.25 460h56v56h-56v-56z" stroke="#fff" stroke-opacity="0" fill="#248814"/><path d="M484.63 482.18c-.15-.17-.34-.25-.56-.25h-5.15v-5.58c-.03-2.54-.96-4.7-2.84-6.4-1.9-1.84-4.15-2.75-6.77-2.75-2.64 0-4.9.83-6.8 2.62-1.9 1.7-2.86 3.87-2.9 6.4v5.66h-5.14c-.25 0-.44.1-.6.25-.15.17-.2.34-.2.6V508c0 .43.33.8.8.8h29.58c.47 0 .8-.37.8-.8v-25.28c0-.2-.05-.38-.2-.54zm-23.46-5.9c.03-2.13.8-3.88 2.37-5.3 1.62-1.5 3.53-2.2 5.74-2.2 2.22 0 4.12.75 5.7 2.25 1.54 1.4 2.32 3.2 2.32 5.32v5.58h-16.16zm22.1 30.94h-28.03v-23.7h28.02z" stroke="#fff" stroke-opacity="0" fill="#fff"/><path d="M468.45 497.3v6.25h1.6v-6.23c2.13-.4 3.62-2.2 3.63-4.35 0-2.43-1.97-4.4-4.4-4.43-2.2-.03-4.06 1.5-4.44 3.68-.4 2.4 1.2 4.68 3.6 5.1zm.82-7.15c.78 0 1.44.27 2 .82.54.56.82 1.22.8 2 .03 1.55-1.2 2.8-2.74 2.82h-.06c-1.56.1-2.92-1.06-3.04-2.62-.12-1.56 1.05-2.93 2.6-3.03.16-.02.28-.02.44 0z" stroke="#fff" stroke-opacity="0" fill="#fff"/><use xlink:href="#f" transform="matrix(1,0,0,1,512.25,480) translate(0 14.222222222222223)"/><use xlink:href="#g" transform="matrix(1,0,0,1,512.25,480) translate(61.13580246913581 14.222222222222223)"/><path d="M280 360h1341.25v682.75H280z" stroke="#248814" stroke-width="2" fill-opacity="0"/><path d="M280 360h56v56h-56v-56z" stroke="#fff" stroke-opacity="0" fill="#248814"/><path d="M311.76 388.3h-1.18v-1.1c-.12-1.73-1.48-3.07-3.2-3.2-1.9-.13-3.54 1.3-3.67 3.2v1.07h-1.17c-.44 0-.8.36-.8.8v6.13c0 .44.36.8.8.8h9.23c.44 0 .8-.36.8-.8v-6.1c0-.44-.36-.8-.8-.8zm-6.4-1.06c.1-1.02 1-1.77 2-1.67.9.08 1.58.77 1.67 1.67v1.06h-3.72zm5.65 7.08h-7.67v-4.42h7.63z" stroke="#fff" stroke-opacity="0" fill="#fff"/><path d="M322.27 385.74c-.08-2.44-1.58-4.47-3.87-5.3-1.58-.46-3.16-.13-4.4.9-.68-1.44-1.47-2.6-2.6-3.75-3.24-3.36-7.94-4.3-12.18-2.4-4.04 1.9-6.4 5.63-6.54 10.05v.7c-3.4.98-5.66 4.08-5.5 7.65v.63c.4 4.28 3.92 7.52 8.2 7.47h26s7.42-.63 7.42-8.1c.04-3.9-2.66-7.2-6.53-7.86zm-.96 14.4h-25.9c-3.47.05-6.3-2.53-6.6-5.97v-.52c-.15-3.05 1.93-5.7 4.92-6.3.38-.12.63-.48.6-.9-.06-.4-.06-.73 0-1.14.07-3.78 2.1-6.94 5.52-8.6 1.25-.56 2.4-.8 3.83-.84 2.62.08 4.87 1.04 6.7 2.94 1.25 1.3 2.04 2.6 2.62 4.3.03.15.1.28.24.37.37.27.87.2 1.12-.17.83-1.18 2.25-1.67 3.62-1.3 1.8.72 2.87 2.4 2.83 4.32-.07.4.22.82.64.9 3.57.36 6.2 3.55 5.82 7.12-.3 3.13-2.7 5.52-5.82 5.85z" stroke="#fff" stroke-opacity="0" fill="#fff"/><use xlink:href="#h" transform="matrix(1,0,0,1,351,380.00000000000006) translate(0 14.222222222222223)"/><use xlink:href="#i" transform="matrix(1,0,0,1,351,380.00000000000006) translate(64.98765432098767 14.222222222222223)"/><use xlink:href="#j" transform="matrix(1,0,0,1,351,380.00000000000006) translate(0 33.777777777777786)"/><path d="M140 160h1521.25v1000H140z" stroke="#232f3e" stroke-width="2" fill-opacity="0"/><path d="M140 160h56v56h-56v-56z" stroke="#fff" stroke-opacity="0" fill="#232f3e"/><path d="M158.22 185.87c-.04.48.05.87.17 1.34.1.4.28.7.48 1.07.04.1.08.22.08.34 0 .2-.12.36-.28.46l-.95.62c-.12.08-.25.13-.37.13-.16 0-.33-.06-.45-.2-.2-.2-.36-.43-.52-.7-.17-.25-.3-.53-.46-.86-1.1 1.37-2.62 2.1-4.4 2.06-1.14.06-2.12-.3-2.95-1.08-.78-.8-1.15-1.76-1.1-2.85-.05-1.23.4-2.28 1.35-3.08 1.07-.85 2.3-1.23 3.66-1.16.57 0 1.02.02 1.6.1.57.1 1.1.2 1.72.33v-1.1c.08-.88-.16-1.67-.7-2.37-.74-.56-1.56-.8-2.46-.7-.53 0-1.03.07-1.6.2-.58.13-1.03.3-1.6.5l-.5.2h-.24c-.2 0-.33-.16-.33-.45v-.75c0-.18.04-.34.12-.5.12-.16.24-.26.4-.33.66-.3 1.2-.5 1.9-.67.77-.2 1.47-.3 2.3-.28 1.47-.13 2.78.26 3.9 1.2.94 1.05 1.35 2.28 1.22 3.67zm-6.07 2.28c.57 0 1.06-.1 1.6-.28.57-.2 1.02-.5 1.44-.96.23-.27.4-.56.48-.93.12-.45.16-.84.16-1.3V184c-.53-.1-.94-.17-1.43-.2H153c-.8-.08-1.55.12-2.2.58-.54.45-.8 1.04-.75 1.73-.04.6.13 1.16.54 1.6.44.38.97.52 1.55.45zm12 1.6c-.22 0-.42-.03-.6-.15-.15-.17-.23-.36-.32-.6l-3.5-11.5-.1-.62c0-.24.1-.37.36-.37h1.47c.2 0 .37.04.57.15.17.18.25.37.3.6l2.5 9.96 2.38-9.93c0-.24.08-.44.28-.6.17-.12.37-.16.58-.15h1.2c.24 0 .4.03.6.15.17.18.25.36.3.6l2.33 9.94 2.56-10c.04-.2.16-.4.33-.58.15-.1.36-.17.56-.14h1.4c.16 0 .33.1.37.3v.31s0 .2-.12.35l-3.6 11.53c-.05.22-.13.42-.3.6-.2.1-.36.14-.57.13h-1.27c-.25.04-.45-.02-.62-.15-.16-.16-.25-.36-.3-.6l-2.3-9.6-2.3 9.6c-.03.24-.1.44-.27.6-.2.13-.4.2-.62.16zm19.2.38c-.82 0-1.5-.07-2.3-.25-.65-.13-1.14-.3-1.72-.6-.2-.1-.37-.23-.45-.42-.08-.14-.12-.28-.12-.43v-.75c0-.3.12-.46.32-.46h.3l.36.16c.58.23 1.03.4 1.6.5.62.14 1.15.2 1.8.2.8.05 1.5-.1 2.2-.5.48-.3.77-.8.72-1.4.05-.4-.12-.76-.36-1.04-.46-.4-.95-.65-1.52-.8l-2.18-.68c-.94-.25-1.73-.73-2.38-1.5-.5-.65-.74-1.35-.74-2.18 0-.6.12-1.08.4-1.6.3-.5.63-.9 1.08-1.22.5-.38.98-.6 1.6-.78.66-.18 1.2-.26 1.9-.25.32-.03.6-.03.97 0l1 .16.8.22.67.26c.16.1.28.22.45.38.08.15.12.3.12.5v.7c0 .32-.12.47-.37.47-.2-.03-.37-.08-.57-.18-.95-.42-1.8-.6-2.88-.58-.7-.04-1.3.1-1.97.4-.5.3-.74.8-.7 1.36 0 .4.13.76.46 1.05.5.4.98.65 1.6.82l2.1.67c.94.24 1.67.7 2.3 1.44.48.64.7 1.3.7 2.1 0 .63-.13 1.17-.38 1.73-.3.55-.62.95-1.1 1.32-.5.4-1 .66-1.6.84-.75.23-1.4.33-2.15.34zM186.1 197.48c-5.6 3.82-11.36 5.58-18.15 5.56-8.54.05-15.82-2.74-22.16-8.45-.5-.42 0-1 .48-.68 7.07 4.05 14.03 5.9 22.2 5.9 6.1-.04 11.3-1.1 16.93-3.47.83-.35 1.52.55.7 1.13z" stroke="#fff" stroke-opacity="0" fill="#fff"/><path d="M188.16 195.2c-.64-.82-4.16-.38-5.75-.2-.46 0-.53-.36-.1-.66 2.8-1.98 7.42-1.4 8-.74.6.67-.14 5.28-2.78 7.5-.4.32-.78.13-.6-.3.54-1.52 1.86-4.83 1.24-5.6z" stroke="#fff" stroke-opacity="0" fill="#fff"/><use xlink:href="#k" transform="matrix(1,0,0,1,211,180) translate(0 14.222222222222223)"/><use xlink:href="#l" transform="matrix(1,0,0,1,211,180) translate(45.333333333333336 14.222222222222223)"/><path d="M453.15 77a8 8 0 0 1 8-8h836.75a8 8 0 0 1 8 8v25.16a8 8 0 0 1-8 8H461.15a8 8 0 0 1-8-8z" stroke="#000" stroke-opacity="0" stroke-width="2" fill="#fff" fill-opacity="0"/><use xlink:href="#m" transform="matrix(1,0,0,1,457.14655278534315,73) translate(336.2902469135803 25.782777777777778)"/><use xlink:href="#n" transform="matrix(1,0,0,1,457.14655278534315,73) translate(410.51370370370375 25.782777777777778)"/><path d="M636.6 108.8h493.13M636.63 108.8h-1.03M1129.7 108.8h1.03" stroke="#a9afb8" stroke-width="2" fill="none"/><path d="M453.15 118.16a8 8 0 0 1 8-8h837.7a8 8 0 0 1 8 8V121a8 8 0 0 1-8 8h-837.7a8 8 0 0 1-8-8z" stroke="#000" stroke-opacity="0" stroke-width="2" fill="#fff" fill-opacity="0"/><use xlink:href="#o" transform="matrix(1,0,0,1,457.1465527853436,114.15522395689881) translate(351.315658436214 14.917037037037037)"/><use xlink:href="#p" transform="matrix(1,0,0,1,457.1465527853436,114.15522395689881) translate(397.9693621399177 14.917037037037037)"/><use xlink:href="#q" transform="matrix(1,0,0,1,457.1465527853436,114.15522395689881) translate(410.4188477366255 14.917037037037037)"/><use xlink:href="#r" transform="matrix(1,0,0,1,457.1465527853436,114.15522395689881) translate(441.81874485596705 14.917037037037037)"/><use xlink:href="#s" transform="matrix(1,0,0,1,457.1465527853436,114.15522395689881) translate(467.3125720164609 14.917037037037037)"/><path d="M1460 180h120v120h-120V180z" stroke="#fff" stroke-opacity="0" stroke-width="2" fill="#3f8624"/><path d="M1486.8 236.84l3.02-.95 9.75 31.67-3.03.94-9.74-31.66z" stroke="#fff" stroke-opacity="0" stroke-width="1.91" fill="#fff"/><path d="M1489.73 226.64l24.4-16.95 1.8 2.6-24.4 16.94-1.8-2.6z" stroke="#fff" stroke-opacity="0" stroke-width="1.64" fill="#fff"/><path d="M1523.96 212.05l1.8-2.6 24.38 17.06-1.8 2.6-24.38-17.05z" stroke="#fff" stroke-opacity="0" stroke-width="1.15" fill="#fff"/><path d="M1540.44 266.98l9.62-31.82 3.04.9-9.62 31.84-3.04-.92z" stroke="#fff" stroke-opacity="0" stroke-width=".58" fill="#fff"/><path d="M1505.38 270.1h29.24v3.16h-29.24v-3.16zM1520 214.77c-3.53 0-6.4-2.87-6.4-6.4 0-3.53 2.87-6.4 6.4-6.4 3.53 0 6.4 2.87 6.4 6.4 0 3.53-2.87 6.4-6.4 6.4zm0-9.74c-1.82 0-3.3 1.47-3.3 3.3 0 1.8 1.48 3.3 3.3 3.3 1.82 0 3.3-1.5 3.3-3.3 0-1.83-1.48-3.3-3.3-3.3z" stroke="#fff" stroke-opacity="0" stroke-width="2" fill="#fff"/><path d="M1500.5 278.14c-3.54 0-6.4-2.86-6.4-6.4 0-3.53 2.86-6.4 6.4-6.4 3.53 0 6.4 2.87 6.4 6.4 0 3.54-2.87 6.4-6.4 6.4zm0-9.74h-.1c-1.82.05-3.24 1.58-3.2 3.4.06 1.8 1.57 3.25 3.4 3.2 1.82-.07 3.25-1.58 3.2-3.4-.05-1.8-1.5-3.2-3.3-3.2zM1539.5 278.14c-3.53 0-6.4-2.86-6.4-6.4 0-3.53 2.87-6.4 6.4-6.4 3.54 0 6.4 2.87 6.4 6.4 0 3.54-2.86 6.4-6.4 6.4zm0-9.74h-.1c-1.83.05-3.26 1.58-3.2 3.4.05 1.8 1.56 3.25 3.38 3.2 1.83-.07 3.25-1.58 3.2-3.4-.04-1.8-1.5-3.2-3.28-3.2zM1487.1 237.94c-3.53 0-6.4-2.87-6.4-6.4 0-3.54 2.87-6.4 6.4-6.4 3.54 0 6.4 2.86 6.4 6.4 0 3.53-2.86 6.4-6.4 6.4zm0-9.77h-.1c-1.82 0-3.3 1.48-3.3 3.3 0 1.82 1.48 3.3 3.3 3.3 1.83 0 3.3-1.48 3.3-3.3 0-1.8-1.4-3.24-3.2-3.3zM1552.9 237.94c-3.54 0-6.4-2.87-6.4-6.4 0-3.54 2.86-6.4 6.4-6.4 3.53 0 6.4 2.86 6.4 6.4 0 3.53-2.87 6.4-6.4 6.4zm0-9.77c-1.82 0-3.3 1.48-3.3 3.3 0 1.82 1.48 3.3 3.3 3.3 1.8 0 3.3-1.48 3.3-3.3 0-1.82-1.5-3.3-3.3-3.3zM1518.42 213.18h3.16v8.53h-3.16v-8.52z" stroke="#fff" stroke-opacity="0" stroke-width="2" fill="#fff"/><path d="M1491.35 235.35l1.25-2.9 8.52 3.65-1.25 2.9-8.52-3.65z" stroke="#fff" stroke-opacity="0" stroke-width=".79" fill="#fff"/><path d="M1501.6 267.15l4.88-7.3 2.64 1.75-4.87 7.3-2.64-1.75z" stroke="#fff" stroke-opacity="0" stroke-width="1.11" fill="#fff"/><path d="M1530.87 261.6l2.63-1.75 4.88 7.3-2.64 1.76-4.87-7.3z" stroke="#fff" stroke-opacity="0" stroke-width="1.66" fill="#fff"/><path d="M1538.87 236.1l8.53-3.66 1.25 2.9-8.53 3.67-1.25-2.9z" stroke="#fff" stroke-opacity="0" stroke-width="1.84" fill="#fff"/><path d="M1507.33 236.4c-.84 0-1.53-.64-1.6-1.47l-.45-6.08 3.2-.23.32 4.5 4.48-.32.24 3.2-6.08.45z" stroke="#fff" stroke-opacity="0" stroke-width="2" fill="#fff"/><path d="M1519.98 259.22c-8.98 0-16.3-7.25-16.36-16.26h3.2c-.02 4.3 1.85 7.96 5.32 10.52 5.84 4.36 14.1 3.15 18.47-2.72 4.37-5.86 3.16-14.12-2.68-18.48-5.87-4.36-14.14-3.15-18.5 2.72l-2.52-1.9c5.37-7.28 15.64-8.78 22.9-3.38 7.27 5.4 8.78 15.67 3.37 22.9-3.22 4.33-7.8 6.63-13.16 6.63z" stroke="#fff" stroke-opacity="0" stroke-width="2" fill="#fff"/><use xlink:href="#t" transform="matrix(1,0,0,1,1430,309) translate(37.35 14.4)"/><use xlink:href="#u" transform="matrix(1,0,0,1,1430,309) translate(82.65 14.4)"/><path d="M1260 180h120v120h-120V180z" stroke="#fff" stroke-opacity="0" fill="#cc2264"/><path d="M1310.38 256.8h-17.6c-1.84-.05-3.44-.53-5.04-1.48-5.04-3.12-7.84-8.3-7.76-14.27-.32-6.8 3.92-12.73 10.4-14.63v-1.27c.24-8.5 4.8-15.7 12.56-19.34 8.24-3.63 17.36-1.84 23.6 4.7 2.17 2.18 3.6 4.3 4.8 7.04 1.77-1.37 3.7-2.06 5.93-2.06 4.32 0 9.28 3.28 10.16 10.52 4.08 1 12.56 4.33 12.56 15.2.23 5.72-2.57 10.74-7.6 13.43l-1.6-2.8c4-2.16 6.15-6.13 5.9-10.62 0-9.4-7.75-11.72-11.2-12.3-.4-.1-.8-.32-1.03-.7-.24-.3-.32-.72-.24-1.15-.48-5.8-3.84-8.4-7.04-8.4-2.17.05-3.93 1-5.2 2.75-.33.47-.9.7-1.53.63-.56-.1-1.04-.47-1.28-1.05-1.05-3.23-2.65-5.76-4.97-8.2-5.37-5.5-13.05-7.02-20.1-3.96-6.4 3.12-10.3 9.14-10.55 16.28 0 .8.08 1.48.16 2.22.08.84-.48 1.63-1.28 1.8-5.68 1.16-9.6 6.18-9.28 11.93-.16 4.87 2.16 9.04 6.32 11.52 1.04.7 2.08 1 3.28 1h17.6z" stroke="#fff" stroke-opacity="0" fill="#fff"/><path d="M1358.23 266.4l-11.38-11.4c2.18-4.86 2.04-9.9-.37-14.64-4.28-8.35-14.53-11.68-22.86-7.37-8.33 4.26-11.66 14.5-7.38 22.8 4.28 8.35 14.48 11.67 22.86 7.4l11.2 11.18c1.1 1.13 2.42 1.62 3.97 1.62 1.55 0 2.9-.5 4-1.62h.05c2.14-2.24 2.14-5.8-.1-8zm-26.87-4.54c-7.6 0-13.75-6.15-13.75-13.74 0-7.58 6.16-13.74 13.76-13.74s13.76 6.16 13.76 13.74c0 7.6-6.15 13.74-13.76 13.74zM1356 272.1c-.96.9-2.5.9-3.46 0l-10.66-10.7c1.37-1.07 2.42-2.14 3.42-3.58l10.7 10.82c.96.94.96 2.47 0 3.45z" stroke="#fff" stroke-opacity="0" fill="#fff"/><path d="M1335.76 240.7l-1.9 2.56c-1.2-.88-2.53-1.2-4-1-2.94.43-4.98 3.18-4.55 6.12.2 1.5.9 2.73 2.15 3.62l-1.85 2.5c-3.76-2.9-4.47-8.3-1.58-12.05 2.83-3.67 8.03-4.46 11.8-1.76z" stroke="#fff" stroke-opacity="0" fill="#fff"/><use xlink:href="#v" transform="matrix(1,0,0,1,1230,309) translate(5.924999999999997 14.4)"/><use xlink:href="#w" transform="matrix(1,0,0,1,1230,309) translate(76.875 14.4)"/><path d="M778 185.42l57.98 8.62v5.1c0 7.53-25.98 13.63-58 13.63-32 0-57.98-6.1-57.98-13.64v-5.53z" fill="#8c3123"/><path d="M778.02 222.13c24.2 0 44.93-3.54 53.58-8.5l2.88-4.78 1.15-4.4v5.45l-19 81c0 5.08-17.3 9.1-38.6 9.1-21.33 0-38.6-4.02-38.6-9.1l-19.02-81v-5.35l4.38 9.27c8.76 4.87 29.27 8.3 53.24 8.3z" fill="#8c3123"/><path d="M778 180c32 0 58 6.12 58 13.62 0 7.5-26 13.57-58 13.57s-58-6.02-58-13.58c0-7.56 26-13.62 58-13.62z" fill="#e05243"/><path d="M778 216.6c29.84 0 54.4-5.2 57.62-12.06l-19.02 81c0 5.05-17.3 9.1-38.6 9.1-21.33 0-38.6-4.05-38.6-9.1l-19.03-81c3.23 6.85 27.78 12.07 57.62 12.07z" fill="#e05243"/><use xlink:href="#x" transform="matrix(1,0,0,1,720.0000000000002,300) translate(5.024999999999999 14.4)"/><use xlink:href="#y" transform="matrix(1,0,0,1,720.0000000000002,300) translate(57.975 14.4)"/><path d="M862 528.75a8 8 0 0 1 8-8h260a8 8 0 0 1 8 8v364a8 8 0 0 1-8 8H870a8 8 0 0 1-8-8z" stroke="#d86613" fill="#fff" fill-opacity="0"/><path d="M862 520.75h56v56h-56v-56z" stroke="#fff" stroke-opacity="0" fill="#d86613"/><path d="M909.2 539.5v-1.58h-3.76v-4.6h-4.8v-3.77h-1.62v3.77h-3.4v-3.77h-1.63v3.77h-3.4v-3.77H889v3.77h-3.42v-3.77h-1.6v3.77h-3.43v-3.77h-1.57v3.77h-4.42v4.57h-3.76v1.6h3.76v3.42h-3.76v1.6h3.76v3.43h-3.76v1.6h3.76V553h-3.76v1.6h3.76v3.43h-3.76v1.62h3.76v4.57h4.42v3.75h1.57v-3.76h3.42v3.75h1.6v-3.76H889v3.75h1.6v-3.76h3.4v3.75h1.6v-3.76h3.42v3.75h1.62v-3.76h4.8v-4.58h3.76v-1.6h-3.76v-3.43h3.76v-1.62h-3.76v-3.42h3.76v-1.6h-3.76v-3.43h3.76v-1.6h-3.76v-3.43zm-5.38 23.08h-27.64v-27.65h27.64z" stroke="#fff" stroke-opacity="0" fill="#fff"/><use xlink:href="#z" transform="matrix(1,0,0,1,933,540.7526594630099) translate(0 14.4)"/><use xlink:href="#A" transform="matrix(1,0,0,1,933,540.7526594630099) translate(39.95 14.4)"/><use xlink:href="#B" transform="matrix(1,0,0,1,933,540.7526594630099) translate(112.95 14.4)"/><path d="M1033.05 643.24h-66.1c-.76 0-1.45-.66-1.45-1.46v-41.32c0-.8.7-1.46 1.45-1.46h66.1c.76 0 1.45.66 1.45 1.46v41.32c0 .8-.7 1.46-1.45 1.46zm-64.58-2.92h63.06v-38.4h-63.06z" stroke="#fff" stroke-opacity="0" fill="#d86613"/><path d="M973.77 605.97h2.93v30.3h-2.93v-30.3zM982.02 605.97h2.93v30.3h-2.93v-30.3zM990.28 605.97h2.94v30.3h-2.94v-30.3zM998.53 605.97h2.94v30.3h-2.94v-30.3zM1006.8 605.97h2.93v30.3h-2.93v-30.3zM1015.05 605.97h2.93v30.3h-2.93v-30.3zM1023.3 605.97h2.95v30.3h-2.94v-30.3z" stroke="#fff" stroke-opacity="0" fill="#d86613"/><use xlink:href="#C" transform="matrix(1,0,0,1,935.5000000000001,652.2432844630099) translate(9.549999999999997 14.4)"/><use xlink:href="#D" transform="matrix(1,0,0,1,935.5000000000001,652.2432844630099) translate(28.049999999999997 36)"/><path d="M948.25 735h103.5v103.5h-103.5V735z" stroke="#fff" stroke-opacity="0" stroke-width="2" fill="#3f8624"/><path d="M1016.54 770.75c-.04-.23-.1-.36-.14-.54-1.22-3.76-8.88-5.7-16.4-5.7-7.55 0-15.17 1.94-16.4 5.7-.06.2-.1.32-.13.55v31.3c0 4.48 8.28 6.78 16.57 6.78 8.28 0 16.56-2.3 16.56-6.78v-30.77c0-.22-.03-.36-.06-.53zm-16.57-3.5c7.88 0 12.6 2.08 13.58 3.5-1 1.37-5.73 3.45-13.58 3.45-7.9 0-12.6-2.04-13.62-3.45 1.03-1.42 5.77-3.5 13.65-3.5zm13.78 34.8c0 1.42-4.87 4.03-13.78 4.03-8.95 0-13.82-2.66-13.82-4.03V774.1c3.15 1.88 8.5 2.85 13.82 2.85 5.3 0 10.67-.97 13.78-2.84z" stroke="#fff" stroke-opacity="0" stroke-width="2" fill="#fff"/><path d="M983.6 770.2c-.05.18-.1.34-.12.53v-.54zM1016.56 770.2v.53c-.03-.2-.07-.35-.12-.54zM980.28 765.07l-1.97 1.96-10.04-10.06v7.7h-2.76v-11.04c0-.76.62-1.38 1.37-1.38h11.05v2.77h-7.7zM1034.5 753.63v11.04h-2.76v-7.7l-10.05 10.06-1.98-1.96 10.07-10.05h-7.72v-2.77h11.05c.75 0 1.37.62 1.37 1.38zM970.2 818.5h7.72v2.75h-11.05c-.75 0-1.37-.62-1.37-1.37v-11.04h2.76v7.7l10.05-10.07 1.98 1.97zM1034.5 808.84v11.04c0 .75-.62 1.37-1.37 1.37h-11.05v-2.76h7.7l-10.06-10.06 1.97-1.97 10.04 10.07v-7.7z" stroke="#fff" stroke-opacity="0" stroke-width="2" fill="#fff"/><g><use xlink:href="#E" transform="matrix(1,0,0,1,918.2500000000001,847.50265946301) translate(32.55 14.4)"/><use xlink:href="#F" transform="matrix(1,0,0,1,918.2500000000001,847.50265946301) translate(73.55 14.4)"/></g><path d="M1035 621.12h273a12 12 0 0 0 12-12V316.38" stroke="#333" fill="none"/><path d="M1035 621.62h-.5v-1h.5z" stroke="#333" stroke-width=".05" fill="#333"/><path d="M1320 301.62l4.64 14.26h-9.28z" stroke="#333" fill="#333"/><path d="M778 300.5v398.25a12 12 0 0 0 12 12h55.17" stroke="#333" fill="none"/><path d="M778.02 300l.48-.02v.52h-1v-.54z" stroke="#333" stroke-width=".05" fill="#333"/><path d="M859.93 710.75l-14.26 4.64v-9.28z" stroke="#333" fill="#333"/><path d="M1520 300.5v474.25a12 12 0 0 1-12 12h-439.87" stroke="#333" fill="none"/><path d="M1520.5 300.5h-1v-.5h1z" stroke="#333" stroke-width=".05" fill="#333"/><path d="M1053.37 786.75l14.26-4.63v9.27z" stroke="#333" fill="#333"/><path d="M1157.6 868.1c-.3-.5-.54-.98-.78-1.48-1.35-3.1-2.07-5.98-2.55-9.43-2-11.4-7.23-20.18-15.5-26.08-5.8-4.27-11.7-7.05-18.6-6-9.24 1.4-17.03 5.6-22.44 15.26-3.1 5.74-5.25 11-7.07 17.55-1.67 5.66-1.52 11.8-3.58 17.3-.48 1.15-.96 2.05-1.5 3.12-1.44 2.7-3.35 5.17-4.4 8.04-2.53 7.12-1.1 11.22 4.55 14.75.63.32 1.2.65 1.82.98 6.6 3.2 22.1 7.22 31.65 2.8 2.4-.9 4.3-1.9 6.45-3.37 7.63-4.92 15.26-10 22.9-15 3.58-2.22 6.44-4.77 9.14-8.46 2.46-3.44 2.38-6.64-.1-10z" fill="#4b612c"/><path d="M1130.66 829.1c4.24 1.85 7.64 4.23 11.1 7.92 2.4 2.3 8.92 10.45 10.4 20.58.15 1.54.3 3.08.5 4.54.22.7.5 1.22.85 1.76l.8 2.38s1.4 2.77 2.2 4.07c.98 1.7 1.33 3.38.27 5.07-2.48 3.84-5.66 6.53-9.55 9l.35-5-2.55-.92c-1 2.68-.35 4.68 2.06 6.14-2.27 1.46-4.32 2.77-6.3 4-6.16 4-12.24 8.06-18.4 11.98-4.74 3-9.34 4.22-14.65 4.07-6.15-.32-11.4-1.55-17.2-4-2.47-1.16-4.52-5.92-3.74-8.92.34-1.46 1.62-2.38 2.82-2.07 4.32.55 8.63 1.16 12.95 1.78 4.74.7 9.55 2 14.3 2 5.44 0 10.6-2 15.7-4.54-1.56.16-3.1.23-4.6.4-4.32.37-8.56.52-12.8 1.22-5.3.84-10.27-.54-15.3-2.08-4.1-1.07-7.35-3.76-9.68-8-.93-1.68-1.5-3.52-.8-5.3.57.63 1.2 1.78 1.63 1.7.5-.07 1.35-1.07 1.63-1.92.64-2.07 1.06-4.22 1.56-6.37.78-4.08 1.63-7.54 2.76-11.53 2.2-6.76 4.6-13.52 8.35-19.36 1.4-2.3 2.76-4.14 4.6-6.06 2.2-2.38 5.1-3.15 8-3.53 3.32-.37 6.72-.14 10.18-.22.15 0 .37.23.58.3z" fill="#759c3e"/><path d="M1152.18 857.62c-.7-1.9-1.37-3.42-2.24-5.2-.8-1.35-1.63-2.35-2.76-3.28-5-4.2-11.84-2.68-15.3 3.35-2.83 4.8-4.12 10.25-4.88 15.94-.22 1.72-.4 3.43-.64 5.62-1.5-3.1-2.17-6.14-2.2-9.7-.27-6.9.54-13.55 4.1-19.27 2.53-4.1 5.53-7.45 9.94-8.2 1.24-.07 2.3-.03 3.54.15 1.35 1.42 2.95 2.57 4 4.24 2.9 4.34 4.8 8.66 6.16 14 .14.8.23 1.5.28 2.32z" fill="#b7ca9d"/><path d="M1130.64 829.12c-4.9 1.63-7.73 6.02-10.06 11.08-3.35 7.25-5.8 14.9-5.66 23.34.02 5.1.8 9.4 2.5 14.04.17.46.28.97.52 1.74-1.8.1-3.37-.87-4.35-2.7-1.87-3.28-2.67-6.7-2.5-10.68.18-10.88 1.93-21.35 7.82-30.13 1.35-1.93 2.6-3.52 4.2-5.2 1.6-1.74 3.45-2.5 5.56-2.35z" fill="#b7ca9d"/><path d="M1154.28 866.3c0 2.68-1.53 4.1-3 5.55-7.46 7.2-16.15 11.02-25.4 13.1-4.1.9-8.26 1.72-12.42 2.34-5.02.7-9.73-1.42-14.5-2.93-1.96-.6-3.86-1.36-5.88-2.07 0-.25 0-.5.06-.75.92-.1 1.72-.1 2.63 0 3.86.8 7.65 2 11.5 2.47 3.74.47 7 .47 10.72 0 6.97-.87 12.84-2.52 19.45-5.52 3.86-1.86 6.98-3.72 10.53-6.2 2.7-1.84 5.2-4.14 5.5-8.37zM1145.03 878.52c1.85-1.34 3.66-2.8 5.57-4 .88-.3 1.66-.44 2.58-.4l.18.55-5.8 4.74z" fill="#b7ca9d"/><g><use xlink:href="#G" transform="matrix(1,0,0,1,1080,906.885625) translate(6.575000000000003 14.4)"/><use xlink:href="#H" transform="matrix(1,0,0,1,1080,906.885625) translate(43.525000000000006 14.4)"/></g><defs><path fill="#dd3522" d="M185-189c-5-48-123-54-124 2 14 75 158 14 163 119 3 78-121 87-175 55-17-10-28-26-33-46l33-7c5 56 141 63 141-1 0-78-155-14-162-118-5-82 145-84 179-34 5 7 8 16 11 25" id="I"/><path fill="#dd3522" d="M100-194c63 0 86 42 84 106H49c0 40 14 67 53 68 26 1 43-12 49-29l28 8c-11 28-37 45-77 45C44 4 14-33 15-96c1-61 26-98 85-98zm52 81c6-60-76-77-97-28-3 7-6 17-6 28h103" id="J"/><path fill="#dd3522" d="M96-169c-40 0-48 33-48 73s9 75 48 75c24 0 41-14 43-38l32 2c-6 37-31 61-74 61-59 0-76-41-82-99-10-93 101-131 147-64 4 7 5 14 7 22l-32 3c-4-21-16-35-41-35" id="K"/><path fill="#dd3522" d="M84 4C-5 8 30-112 23-190h32v120c0 31 7 50 39 49 72-2 45-101 50-169h31l1 190h-30c-1-10 1-25-2-33-11 22-28 36-60 37" id="L"/><path fill="#dd3522" d="M114-163C36-179 61-72 57 0H25l-1-190h30c1 12-1 29 2 39 6-27 23-49 58-41v29" id="M"/><path fill="#dd3522" d="M24-231v-30h32v30H24zM24 0v-190h32V0H24" id="N"/><path fill="#dd3522" d="M59-47c-2 24 18 29 38 22v24C64 9 27 4 27-40v-127H5v-23h24l9-43h21v43h35v23H59v120" id="O"/><path fill="#dd3522" d="M179-190L93 31C79 59 56 82 12 73V49c39 6 53-20 64-50L1-190h34L92-34l54-156h33" id="P"/><g id="a"><use transform="matrix(0.05,0,0,0.05,0,0)" xlink:href="#I"/><use transform="matrix(0.05,0,0,0.05,12,0)" xlink:href="#J"/><use transform="matrix(0.05,0,0,0.05,22,0)" xlink:href="#K"/><use transform="matrix(0.05,0,0,0.05,31,0)" xlink:href="#L"/><use transform="matrix(0.05,0,0,0.05,41,0)" xlink:href="#M"/><use transform="matrix(0.05,0,0,0.05,46.95,0)" xlink:href="#N"/><use transform="matrix(0.05,0,0,0.05,50.900000000000006,0)" xlink:href="#O"/><use transform="matrix(0.05,0,0,0.05,55.900000000000006,0)" xlink:href="#P"/></g><path fill="#dd3522" d="M143 4C61 4 22-44 18-125c-5-107 100-154 193-111 17 8 29 25 37 43l-32 9c-13-25-37-40-76-40-61 0-88 39-88 99 0 61 29 100 91 101 35 0 62-11 79-27v-45h-74v-28h105v86C228-13 192 4 143 4" id="Q"/><path fill="#dd3522" d="M100-194c62-1 85 37 85 99 1 63-27 99-86 99S16-35 15-95c0-66 28-99 85-99zM99-20c44 1 53-31 53-75 0-43-8-75-51-75s-53 32-53 75 10 74 51 75" id="R"/><path fill="#dd3522" d="M115-194c55 1 70 41 70 98S169 2 115 4C84 4 66-9 55-30l1 105H24l-1-265h31l2 30c10-21 28-34 59-34zm-8 174c40 0 45-34 45-75s-6-73-45-74c-42 0-51 32-51 76 0 43 10 73 51 73" id="S"/><g id="b"><use transform="matrix(0.05,0,0,0.05,0,0)" xlink:href="#Q"/><use transform="matrix(0.05,0,0,0.05,14,0)" xlink:href="#M"/><use transform="matrix(0.05,0,0,0.05,19.95,0)" xlink:href="#R"/><use transform="matrix(0.05,0,0,0.05,29.950000000000003,0)" xlink:href="#L"/><use transform="matrix(0.05,0,0,0.05,39.95,0)" xlink:href="#S"/></g><path fill="#666" d="M199 0l-22-63H83L61 0H9l90-248h61L250 0h-51zm-33-102l-36-108c-10 38-24 72-36 108h72" id="T"/><path fill="#666" d="M128 0H69L1-190h53L99-40l48-150h52" id="U"/><path fill="#666" d="M133-34C117-15 103 5 69 4 32 3 11-16 11-54c-1-60 55-63 116-61 1-26-3-47-28-47-18 1-26 9-28 27l-52-2c7-38 36-58 82-57s74 22 75 68l1 82c-1 14 12 18 25 15v27c-30 8-71 5-69-32zm-48 3c29 0 43-24 42-57-32 0-66-3-65 30 0 17 8 27 23 27" id="V"/><path fill="#666" d="M25-224v-37h50v37H25zM25 0v-190h50V0H25" id="W"/><path fill="#666" d="M25 0v-261h50V0H25" id="X"/><path fill="#666" d="M135-194c52 0 70 43 70 98 0 56-19 99-73 100-30 1-46-15-58-35L72 0H24l1-261h50v104c11-23 29-37 60-37zM114-30c31 0 40-27 40-66 0-37-7-63-39-63s-41 28-41 65c0 36 8 64 40 64" id="Y"/><path fill="#666" d="M115-3C79 11 28 4 28-45v-112H4v-33h27l15-45h31v45h36v33H77v99c-1 23 16 31 38 25v30" id="Z"/><path fill="#666" d="M123 10C108 53 80 86 19 72V37c35 8 53-11 59-39L3-190h52l48 148c12-52 28-100 44-148h51" id="aa"/><g id="c"><use transform="matrix(0.04938271604938272,0,0,0.04938271604938272,0,0)" xlink:href="#T"/><use transform="matrix(0.04938271604938272,0,0,0.04938271604938272,12.14814814814815,0)" xlink:href="#U"/><use transform="matrix(0.04938271604938272,0,0,0.04938271604938272,22.024691358024697,0)" xlink:href="#V"/><use transform="matrix(0.04938271604938272,0,0,0.04938271604938272,31.90123456790124,0)" xlink:href="#W"/><use transform="matrix(0.04938271604938272,0,0,0.04938271604938272,36.83950617283951,0)" xlink:href="#X"/><use transform="matrix(0.04938271604938272,0,0,0.04938271604938272,41.777777777777786,0)" xlink:href="#V"/><use transform="matrix(0.04938271604938272,0,0,0.04938271604938272,51.65432098765432,0)" xlink:href="#Y"/><use transform="matrix(0.04938271604938272,0,0,0.04938271604938272,62.469135802469154,0)" xlink:href="#W"/><use transform="matrix(0.04938271604938272,0,0,0.04938271604938272,67.40740740740742,0)" xlink:href="#X"/><use transform="matrix(0.04938271604938272,0,0,0.04938271604938272,72.3456790123457,0)" xlink:href="#W"/><use transform="matrix(0.04938271604938272,0,0,0.04938271604938272,77.28395061728398,0)" xlink:href="#Z"/><use transform="matrix(0.04938271604938272,0,0,0.04938271604938272,83.16049382716052,0)" xlink:href="#aa"/></g><path fill="#666" d="M210 0H11v-37l134-170H24v-41h178v36L68-41h142V0" id="ab"/><path fill="#666" d="M110-194c64 0 96 36 96 99 0 64-35 99-97 99-61 0-95-36-95-99 0-62 34-99 96-99zm-1 164c35 0 45-28 45-65 0-40-10-65-43-65-34 0-45 26-45 65 0 36 10 65 43 65" id="ac"/><path fill="#666" d="M135-194c87-1 58 113 63 194h-50c-7-57 23-157-34-157-59 0-34 97-39 157H25l-1-190h47c2 12-1 28 3 38 12-26 28-41 61-42" id="ad"/><path fill="#666" d="M185-48c-13 30-37 53-82 52C43 2 14-33 14-96s30-98 90-98c62 0 83 45 84 108H66c0 31 8 55 39 56 18 0 30-7 34-22zm-45-69c5-46-57-63-70-21-2 6-4 13-4 21h74" id="ae"/><g id="d"><use transform="matrix(0.04938271604938272,0,0,0.04938271604938272,0,0)" xlink:href="#ab"/><use transform="matrix(0.04938271604938272,0,0,0.04938271604938272,10.814814814814815,0)" xlink:href="#ac"/><use transform="matrix(0.04938271604938272,0,0,0.04938271604938272,21.62962962962963,0)" xlink:href="#ad"/><use transform="matrix(0.04938271604938272,0,0,0.04938271604938272,32.44444444444444,0)" xlink:href="#ae"/></g><use transform="matrix(0.04938271604938272,0,0,0.04938271604938272,0,0)" xlink:href="#T" id="e"/><path fill="#666" d="M30-248c118-7 216 8 213 122C240-48 200 0 122 0H30v-248zM63-27c89 8 146-16 146-99s-60-101-146-95v194" id="af"/><path fill="#666" d="M100-194c63 0 86 42 84 106H49c0 40 14 67 53 68 26 1 43-12 49-29l28 8c-11 28-37 45-77 45C44 4 14-33 15-96c1-61 26-98 85-98zm52 81c6-60-76-77-97-28-3 7-6 17-6 28h103" id="ag"/><path fill="#666" d="M101-234c-31-9-42 10-38 44h38v23H63V0H32v-167H5v-23h27c-7-52 17-82 69-68v24" id="ah"/><path fill="#666" d="M141-36C126-15 110 5 73 4 37 3 15-17 15-53c-1-64 63-63 125-63 3-35-9-54-41-54-24 1-41 7-42 31l-33-3c5-37 33-52 76-52 45 0 72 20 72 64v82c-1 20 7 32 28 27v20c-31 9-61-2-59-35zM48-53c0 20 12 33 32 33 41-3 63-29 60-74-43 2-92-5-92 41" id="ai"/><path fill="#666" d="M84 4C-5 8 30-112 23-190h32v120c0 31 7 50 39 49 72-2 45-101 50-169h31l1 190h-30c-1-10 1-25-2-33-11 22-28 36-60 37" id="aj"/><path fill="#666" d="M24 0v-261h32V0H24" id="ak"/><path fill="#666" d="M59-47c-2 24 18 29 38 22v24C64 9 27 4 27-40v-127H5v-23h24l9-43h21v43h35v23H59v120" id="al"/><g id="f"><use transform="matrix(0.04938271604938272,0,0,0.04938271604938272,0,0)" xlink:href="#af"/><use transform="matrix(0.04938271604938272,0,0,0.04938271604938272,12.790123456790125,0)" xlink:href="#ag"/><use transform="matrix(0.04938271604938272,0,0,0.04938271604938272,22.66666666666667,0)" xlink:href="#ah"/><use transform="matrix(0.04938271604938272,0,0,0.04938271604938272,27.604938271604947,0)" xlink:href="#ai"/><use transform="matrix(0.04938271604938272,0,0,0.04938271604938272,37.48148148148149,0)" xlink:href="#aj"/><use transform="matrix(0.04938271604938272,0,0,0.04938271604938272,47.35802469135803,0)" xlink:href="#ak"/><use transform="matrix(0.04938271604938272,0,0,0.04938271604938272,51.25925925925927,0)" xlink:href="#al"/></g><path fill="#666" d="M185-189c-5-48-123-54-124 2 14 75 158 14 163 119 3 78-121 87-175 55-17-10-28-26-33-46l33-7c5 56 141 63 141-1 0-78-155-14-162-118-5-82 145-84 179-34 5 7 8 16 11 25" id="am"/><path fill="#666" d="M115-194c53 0 69 39 70 98 0 66-23 100-70 100C84 3 66-7 56-30L54 0H23l1-261h32v101c10-23 28-34 59-34zm-8 174c40 0 45-34 45-75 0-40-5-75-45-74-42 0-51 32-51 76 0 43 10 73 51 73" id="an"/><path fill="#666" d="M117-194c89-4 53 116 60 194h-32v-121c0-31-8-49-39-48C34-167 62-67 57 0H25l-1-190h30c1 10-1 24 2 32 11-22 29-35 61-36" id="ao"/><g id="g"><use transform="matrix(0.04938271604938272,0,0,0.04938271604938272,0,0)" xlink:href="#am"/><use transform="matrix(0.04938271604938272,0,0,0.04938271604938272,11.851851851851853,0)" xlink:href="#aj"/><use transform="matrix(0.04938271604938272,0,0,0.04938271604938272,21.7283950617284,0)" xlink:href="#an"/><use transform="matrix(0.04938271604938272,0,0,0.04938271604938272,31.60493827160494,0)" xlink:href="#ao"/><use transform="matrix(0.04938271604938272,0,0,0.04938271604938272,41.48148148148149,0)" xlink:href="#ag"/><use transform="matrix(0.04938271604938272,0,0,0.04938271604938272,51.35802469135803,0)" xlink:href="#al"/></g><path fill="#666" d="M24-248c120-7 223 5 221 122C244-46 201 0 124 0H24v-248zM76-40c74 7 117-18 117-86 0-67-45-88-117-82v168" id="ap"/><path fill="#666" d="M121-226c-27-7-43 5-38 36h38v33H83V0H34v-157H6v-33h28c-9-59 32-81 87-68v32" id="aq"/><path fill="#666" d="M85 4C-2 5 27-109 22-190h50c7 57-23 150 33 157 60-5 35-97 40-157h50l1 190h-47c-2-12 1-28-3-38-12 25-28 42-61 42" id="ar"/><g id="h"><use transform="matrix(0.04938271604938272,0,0,0.04938271604938272,0,0)" xlink:href="#ap"/><use transform="matrix(0.04938271604938272,0,0,0.04938271604938272,12.790123456790125,0)" xlink:href="#ae"/><use transform="matrix(0.04938271604938272,0,0,0.04938271604938272,22.66666666666667,0)" xlink:href="#aq"/><use transform="matrix(0.04938271604938272,0,0,0.04938271604938272,28.54320987654322,0)" xlink:href="#V"/><use transform="matrix(0.04938271604938272,0,0,0.04938271604938272,38.41975308641976,0)" xlink:href="#ar"/><use transform="matrix(0.04938271604938272,0,0,0.04938271604938272,49.23456790123458,0)" xlink:href="#X"/><use transform="matrix(0.04938271604938272,0,0,0.04938271604938272,54.17283950617284,0)" xlink:href="#Z"/></g><path fill="#666" d="M147 0H94L2-248h55l64 206c17-72 42-137 63-206h54" id="as"/><path fill="#666" d="M24-248c93 1 206-16 204 79-1 75-69 88-152 82V0H24v-248zm52 121c47 0 100 7 100-41 0-47-54-39-100-39v80" id="at"/><path fill="#666" d="M67-125c0 53 21 87 73 88 37 1 54-22 65-47l45 17C233-25 199 4 140 4 58 4 20-42 15-125 8-235 124-281 211-232c18 10 29 29 36 50l-46 12c-8-25-30-41-62-41-52 0-71 34-72 86" id="au"/><g id="i"><use transform="matrix(0.04938271604938272,0,0,0.04938271604938272,0,0)" xlink:href="#as"/><use transform="matrix(0.04938271604938272,0,0,0.04938271604938272,11.851851851851853,0)" xlink:href="#at"/><use transform="matrix(0.04938271604938272,0,0,0.04938271604938272,23.703703703703706,0)" xlink:href="#au"/></g><path fill="#666" d="M27 0v-27h64v-190l-56 39v-29l58-41h29v221h61V0H27" id="av"/><path fill="#666" d="M101-251c68 0 85 55 85 127S166 4 100 4C33 4 14-52 14-124c0-73 17-127 87-127zm-1 229c47 0 54-49 54-102s-4-102-53-102c-51 0-55 48-55 102 0 53 5 102 54 102" id="aw"/><path fill="#666" d="M33 0v-38h34V0H33" id="ax"/><path fill="#666" d="M0 4l72-265h28L28 4H0" id="ay"/><path fill="#666" d="M110-160c48 1 74 30 74 79 0 53-28 85-80 85-65 0-83-55-86-122-5-90 50-162 133-122 14 7 22 21 27 39l-31 6c-5-40-67-38-82-6-9 19-15 44-15 74 11-20 30-34 60-33zm-7 138c34 0 49-23 49-58s-16-56-50-56c-29 0-50 16-49 49 1 36 15 65 50 65" id="az"/><g id="j"><use transform="matrix(0.04320987654320988,0,0,0.04320987654320988,0,0)" xlink:href="#av"/><use transform="matrix(0.04320987654320988,0,0,0.04320987654320988,8.641975308641976,0)" xlink:href="#aw"/><use transform="matrix(0.04320987654320988,0,0,0.04320987654320988,17.283950617283953,0)" xlink:href="#ax"/><use transform="matrix(0.04320987654320988,0,0,0.04320987654320988,21.60493827160494,0)" xlink:href="#aw"/><use transform="matrix(0.04320987654320988,0,0,0.04320987654320988,30.24691358024692,0)" xlink:href="#ax"/><use transform="matrix(0.04320987654320988,0,0,0.04320987654320988,34.567901234567906,0)" xlink:href="#aw"/><use transform="matrix(0.04320987654320988,0,0,0.04320987654320988,43.20987654320988,0)" xlink:href="#ax"/><use transform="matrix(0.04320987654320988,0,0,0.04320987654320988,47.53086419753087,0)" xlink:href="#aw"/><use transform="matrix(0.04320987654320988,0,0,0.04320987654320988,56.17283950617284,0)" xlink:href="#ay"/><use transform="matrix(0.04320987654320988,0,0,0.04320987654320988,60.49382716049384,0)" xlink:href="#av"/><use transform="matrix(0.04320987654320988,0,0,0.04320987654320988,69.13580246913581,0)" xlink:href="#az"/></g><path fill="#666" d="M275 0h-61l-44-196L126 0H64L0-248h53L97-49l45-199h58l43 199 44-199h52" id="aA"/><path fill="#666" d="M169-182c-1-43-94-46-97-3 18 66 151 10 154 114 3 95-165 93-204 36-6-8-10-19-12-30l50-8c3 46 112 56 116 5-17-69-150-10-154-114-4-87 153-88 188-35 5 8 8 18 10 28" id="aB"/><g id="k"><use transform="matrix(0.04938271604938272,0,0,0.04938271604938272,0,0)" xlink:href="#T"/><use transform="matrix(0.04938271604938272,0,0,0.04938271604938272,11.80246913580247,0)" xlink:href="#aA"/><use transform="matrix(0.04938271604938272,0,0,0.04938271604938272,28.543209876543205,0)" xlink:href="#aB"/></g><path fill="#666" d="M88-194c31-1 46 15 58 34l-1-101h50l1 261h-48c-2-10 0-23-3-31C134-8 116 4 84 4 32 4 16-41 15-95c0-56 19-97 73-99zm17 164c33 0 40-30 41-66 1-37-9-64-41-64s-38 30-39 65c0 43 13 65 39 65" id="aC"/><g id="l"><use transform="matrix(0.04938271604938272,0,0,0.04938271604938272,0,0)" xlink:href="#au"/><use transform="matrix(0.04938271604938272,0,0,0.04938271604938272,12.790123456790125,0)" xlink:href="#X"/><use transform="matrix(0.04938271604938272,0,0,0.04938271604938272,17.7283950617284,0)" xlink:href="#ac"/><use transform="matrix(0.04938271604938272,0,0,0.04938271604938272,28.54320987654322,0)" xlink:href="#ar"/><use transform="matrix(0.04938271604938272,0,0,0.04938271604938272,39.35802469135803,0)" xlink:href="#aC"/></g><path fill="#a9afb8" d="M135-194c52 0 70 43 70 98 0 56-19 99-73 100-30 1-46-15-58-35L72 0H24l1-261h50v104c11-23 29-37 60-37zM114-30c31 0 40-27 40-66 0-37-7-63-39-63s-41 28-41 65c0 36 8 64 40 64" id="aD"/><path fill="#a9afb8" d="M133-34C117-15 103 5 69 4 32 3 11-16 11-54c-1-60 55-63 116-61 1-26-3-47-28-47-18 1-26 9-28 27l-52-2c7-38 36-58 82-57s74 22 75 68l1 82c-1 14 12 18 25 15v27c-30 8-71 5-69-32zm-48 3c29 0 43-24 42-57-32 0-66-3-65 30 0 17 8 27 23 27" id="aE"/><path fill="#a9afb8" d="M137-138c1-29-70-34-71-4 15 46 118 7 119 86 1 83-164 76-172 9l43-7c4 19 20 25 44 25 33 8 57-30 24-41C81-84 22-81 20-136c-2-80 154-74 161-7" id="aF"/><path fill="#a9afb8" d="M25-224v-37h50v37H25zM25 0v-190h50V0H25" id="aG"/><path fill="#a9afb8" d="M190-63c-7 42-38 67-86 67-59 0-84-38-90-98-12-110 154-137 174-36l-49 2c-2-19-15-32-35-32-30 0-35 28-38 64-6 74 65 87 74 30" id="aH"/><g id="m"><use transform="matrix(0.0728395061728395,0,0,0.0728395061728395,0,0)" xlink:href="#aD"/><use transform="matrix(0.0728395061728395,0,0,0.0728395061728395,15.95185185185185,0)" xlink:href="#aE"/><use transform="matrix(0.0728395061728395,0,0,0.0728395061728395,30.51975308641975,0)" xlink:href="#aF"/><use transform="matrix(0.0728395061728395,0,0,0.0728395061728395,45.08765432098765,0)" xlink:href="#aG"/><use transform="matrix(0.0728395061728395,0,0,0.0728395061728395,52.3716049382716,0)" xlink:href="#aH"/></g><path fill="#a9afb8" d="M185-48c-13 30-37 53-82 52C43 2 14-33 14-96s30-98 90-98c62 0 83 45 84 108H66c0 31 8 55 39 56 18 0 30-7 34-22zm-45-69c5-46-57-63-70-21-2 6-4 13-4 21h74" id="aI"/><path fill="#a9afb8" d="M144 0l-44-69L55 0H2l70-98-66-92h53l41 62 40-62h54l-67 91 71 99h-54" id="aJ"/><path fill="#a9afb8" d="M220-157c-53 9-28 100-34 157h-49v-107c1-27-5-49-29-50C55-147 81-57 75 0H25l-1-190h47c2 12-1 28 3 38 10-53 101-56 108 0 13-22 24-43 59-42 82 1 51 116 57 194h-49v-107c-1-25-5-48-29-50" id="aK"/><path fill="#a9afb8" d="M135-194c53 0 70 44 70 98 0 56-19 98-73 100-31 1-45-17-59-34 3 33 2 69 2 105H25l-1-265h48c2 10 0 23 3 31 11-24 29-35 60-35zM114-30c33 0 39-31 40-66 0-38-9-64-40-64-56 0-55 130 0 130" id="aL"/><path fill="#a9afb8" d="M25 0v-261h50V0H25" id="aM"/><g id="n"><use transform="matrix(0.0728395061728395,0,0,0.0728395061728395,0,0)" xlink:href="#aI"/><use transform="matrix(0.0728395061728395,0,0,0.0728395061728395,14.5679012345679,0)" xlink:href="#aJ"/><use transform="matrix(0.0728395061728395,0,0,0.0728395061728395,29.1358024691358,0)" xlink:href="#aE"/><use transform="matrix(0.0728395061728395,0,0,0.0728395061728395,43.7037037037037,0)" xlink:href="#aK"/><use transform="matrix(0.0728395061728395,0,0,0.0728395061728395,67.01234567901234,0)" xlink:href="#aL"/><use transform="matrix(0.0728395061728395,0,0,0.0728395061728395,82.9641975308642,0)" xlink:href="#aM"/><use transform="matrix(0.0728395061728395,0,0,0.0728395061728395,90.24814814814815,0)" xlink:href="#aI"/></g><path fill="#a9afb8" d="M24 0v-261h32V0H24" id="aN"/><path fill="#a9afb8" d="M100-194c63 0 86 42 84 106H49c0 40 14 67 53 68 26 1 43-12 49-29l28 8c-11 28-37 45-77 45C44 4 14-33 15-96c1-61 26-98 85-98zm52 81c6-60-76-77-97-28-3 7-6 17-6 28h103" id="aO"/><path fill="#a9afb8" d="M115-194c53 0 69 39 70 98 0 66-23 100-70 100C84 3 66-7 56-30L54 0H23l1-261h32v101c10-23 28-34 59-34zm-8 174c40 0 45-34 45-75 0-40-5-75-45-74-42 0-51 32-51 76 0 43 10 73 51 73" id="aP"/><path fill="#a9afb8" d="M155-56V0h-30v-56H8v-25l114-167h33v167h35v25h-35zm-30-156c-27 46-58 90-88 131h88v-131" id="aQ"/><path fill="#a9afb8" d="M114-163C36-179 61-72 57 0H25l-1-190h30c1 12-1 29 2 39 6-27 23-49 58-41v29" id="aR"/><g id="o"><use transform="matrix(0.04248971193415638,0,0,0.04248971193415638,0,0)" xlink:href="#aN"/><use transform="matrix(0.04248971193415638,0,0,0.04248971193415638,3.356687242798354,0)" xlink:href="#aO"/><use transform="matrix(0.04248971193415638,0,0,0.04248971193415638,11.854629629629626,0)" xlink:href="#aP"/><use transform="matrix(0.04248971193415638,0,0,0.04248971193415638,20.352572016460904,0)" xlink:href="#aQ"/><use transform="matrix(0.04248971193415638,0,0,0.04248971193415638,28.85051440329218,0)" xlink:href="#aR"/></g><path fill="#a9afb8" d="M32 76v-337h29V76H32" id="aS"/><use transform="matrix(0.04248971193415638,0,0,0.04248971193415638,0,0)" xlink:href="#aS" id="p"/><path fill="#a9afb8" d="M153-248C145-148 188 4 80 4 36 3 13-21 6-62l32-5c4 25 16 42 43 43 27 0 39-20 39-49v-147H72v-28h81" id="aT"/><path fill="#a9afb8" d="M84 4C-5 8 30-112 23-190h32v120c0 31 7 50 39 49 72-2 45-101 50-169h31l1 190h-30c-1-10 1-25-2-33-11 22-28 36-60 37" id="aU"/><path fill="#a9afb8" d="M179-190L93 31C79 59 56 82 12 73V49c39 6 53-20 64-50L1-190h34L92-34l54-156h33" id="aV"/><g id="q"><use transform="matrix(0.04248971193415638,0,0,0.04248971193415638,0,0)" xlink:href="#aT"/><use transform="matrix(0.04248971193415638,0,0,0.04248971193415638,7.648148148148148,0)" xlink:href="#aU"/><use transform="matrix(0.04248971193415638,0,0,0.04248971193415638,16.14609053497942,0)" xlink:href="#aN"/><use transform="matrix(0.04248971193415638,0,0,0.04248971193415638,19.502777777777776,0)" xlink:href="#aV"/></g><path fill="#a9afb8" d="M101-251c82-7 93 87 43 132L82-64C71-53 59-42 53-27h129V0H18c2-99 128-94 128-182 0-28-16-43-45-43s-46 15-49 41l-32-3c6-41 34-60 81-64" id="aW"/><path fill="#a9afb8" d="M68-38c1 34 0 65-14 84H32c9-13 17-26 17-46H33v-38h35" id="aX"/><g id="r"><use transform="matrix(0.04248971193415638,0,0,0.04248971193415638,0,0)" xlink:href="#aW"/><use transform="matrix(0.04248971193415638,0,0,0.04248971193415638,8.497942386831275,0)" xlink:href="#aW"/><use transform="matrix(0.04248971193415638,0,0,0.04248971193415638,16.99588477366255,0)" xlink:href="#aX"/></g><path fill="#a9afb8" d="M101-251c68 0 85 55 85 127S166 4 100 4C33 4 14-52 14-124c0-73 17-127 87-127zm-1 229c47 0 54-49 54-102s-4-102-53-102c-51 0-55 48-55 102 0 53 5 102 54 102" id="aY"/><g id="s"><use transform="matrix(0.04248971193415638,0,0,0.04248971193415638,0,0)" xlink:href="#aW"/><use transform="matrix(0.04248971193415638,0,0,0.04248971193415638,8.497942386831275,0)" xlink:href="#aY"/><use transform="matrix(0.04248971193415638,0,0,0.04248971193415638,16.99588477366255,0)" xlink:href="#aW"/><use transform="matrix(0.04248971193415638,0,0,0.04248971193415638,25.493827160493822,0)" xlink:href="#aW"/></g><path fill="#333" d="M205 0l-28-72H64L36 0H1l101-248h38L239 0h-34zm-38-99l-47-123c-12 45-31 82-46 123h93" id="aZ"/><path fill="#333" d="M266 0h-40l-56-210L115 0H75L2-248h35L96-30l15-64 43-154h32l59 218 59-218h35" id="ba"/><path fill="#333" d="M185-189c-5-48-123-54-124 2 14 75 158 14 163 119 3 78-121 87-175 55-17-10-28-26-33-46l33-7c5 56 141 63 141-1 0-78-155-14-162-118-5-82 145-84 179-34 5 7 8 16 11 25" id="bb"/><g id="t"><use transform="matrix(0.05,0,0,0.05,0,0)" xlink:href="#aZ"/><use transform="matrix(0.05,0,0,0.05,11.35,0)" xlink:href="#ba"/><use transform="matrix(0.05,0,0,0.05,28.299999999999997,0)" xlink:href="#bb"/></g><path fill="#333" d="M160-131c35 5 61 23 61 61C221 17 115-2 30 0v-248c76 3 177-17 177 60 0 33-19 50-47 57zm-97-11c50-1 110 9 110-42 0-47-63-36-110-37v79zm0 115c55-2 124 14 124-45 0-56-70-42-124-44v89" id="bc"/><path fill="#333" d="M141-36C126-15 110 5 73 4 37 3 15-17 15-53c-1-64 63-63 125-63 3-35-9-54-41-54-24 1-41 7-42 31l-33-3c5-37 33-52 76-52 45 0 72 20 72 64v82c-1 20 7 32 28 27v20c-31 9-61-2-59-35zM48-53c0 20 12 33 32 33 41-3 63-29 60-74-43 2-92-5-92 41" id="bd"/><path fill="#333" d="M96-169c-40 0-48 33-48 73s9 75 48 75c24 0 41-14 43-38l32 2c-6 37-31 61-74 61-59 0-76-41-82-99-10-93 101-131 147-64 4 7 5 14 7 22l-32 3c-4-21-16-35-41-35" id="be"/><path fill="#333" d="M143 0L79-87 56-68V0H24v-261h32v163l83-92h37l-77 82L181 0h-38" id="bf"/><path fill="#333" d="M84 4C-5 8 30-112 23-190h32v120c0 31 7 50 39 49 72-2 45-101 50-169h31l1 190h-30c-1-10 1-25-2-33-11 22-28 36-60 37" id="bg"/><path fill="#333" d="M115-194c55 1 70 41 70 98S169 2 115 4C84 4 66-9 55-30l1 105H24l-1-265h31l2 30c10-21 28-34 59-34zm-8 174c40 0 45-34 45-75s-6-73-45-74c-42 0-51 32-51 76 0 43 10 73 51 73" id="bh"/><g id="u"><use transform="matrix(0.05,0,0,0.05,0,0)" xlink:href="#bc"/><use transform="matrix(0.05,0,0,0.05,12,0)" xlink:href="#bd"/><use transform="matrix(0.05,0,0,0.05,22,0)" xlink:href="#be"/><use transform="matrix(0.05,0,0,0.05,31,0)" xlink:href="#bf"/><use transform="matrix(0.05,0,0,0.05,40,0)" xlink:href="#bg"/><use transform="matrix(0.05,0,0,0.05,50,0)" xlink:href="#bh"/></g><path fill="#333" d="M210-169c-67 3-38 105-44 169h-31v-121c0-29-5-50-35-48C34-165 62-65 56 0H25l-1-190h30c1 10-1 24 2 32 10-44 99-50 107 0 11-21 27-35 58-36 85-2 47 119 55 194h-31v-121c0-29-5-49-35-48" id="bi"/><path fill="#333" d="M9 0v-24l116-142H16v-24h144v24L44-24h123V0H9" id="bj"/><path fill="#333" d="M100-194c62-1 85 37 85 99 1 63-27 99-86 99S16-35 15-95c0-66 28-99 85-99zM99-20c44 1 53-31 53-75 0-43-8-75-51-75s-53 32-53 75 10 74 51 75" id="bk"/><path fill="#333" d="M117-194c89-4 53 116 60 194h-32v-121c0-31-8-49-39-48C34-167 62-67 57 0H25l-1-190h30c1 10-1 24 2 32 11-22 29-35 61-36" id="bl"/><g id="v"><use transform="matrix(0.05,0,0,0.05,0,0)" xlink:href="#aZ"/><use transform="matrix(0.05,0,0,0.05,12,0)" xlink:href="#bi"/><use transform="matrix(0.05,0,0,0.05,26.950000000000003,0)" xlink:href="#bd"/><use transform="matrix(0.05,0,0,0.05,36.95,0)" xlink:href="#bj"/><use transform="matrix(0.05,0,0,0.05,45.95,0)" xlink:href="#bk"/><use transform="matrix(0.05,0,0,0.05,55.95,0)" xlink:href="#bl"/></g><path fill="#333" d="M212-179c-10-28-35-45-73-45-59 0-87 40-87 99 0 60 29 101 89 101 43 0 62-24 78-52l27 14C228-24 195 4 139 4 59 4 22-46 18-125c-6-104 99-153 187-111 19 9 31 26 39 46" id="bm"/><path fill="#333" d="M24 0v-261h32V0H24" id="bn"/><path fill="#333" d="M85-194c31 0 48 13 60 33l-1-100h32l1 261h-30c-2-10 0-23-3-31C134-8 116 4 85 4 32 4 16-35 15-94c0-66 23-100 70-100zm9 24c-40 0-46 34-46 75 0 40 6 74 45 74 42 0 51-32 51-76 0-42-9-74-50-73" id="bo"/><path fill="#333" d="M59-47c-2 24 18 29 38 22v24C64 9 27 4 27-40v-127H5v-23h24l9-43h21v43h35v23H59v120" id="bp"/><path fill="#333" d="M106-169C34-169 62-67 57 0H25v-261h32l-1 103c12-21 28-36 61-36 89 0 53 116 60 194h-32v-121c2-32-8-49-39-48" id="bq"/><g id="w"><use transform="matrix(0.05,0,0,0.05,0,0)" xlink:href="#bm"/><use transform="matrix(0.05,0,0,0.05,12.950000000000001,0)" xlink:href="#bn"/><use transform="matrix(0.05,0,0,0.05,16.900000000000002,0)" xlink:href="#bk"/><use transform="matrix(0.05,0,0,0.05,26.900000000000002,0)" xlink:href="#bg"/><use transform="matrix(0.05,0,0,0.05,36.900000000000006,0)" xlink:href="#bo"/><use transform="matrix(0.05,0,0,0.05,46.900000000000006,0)" xlink:href="#ba"/><use transform="matrix(0.05,0,0,0.05,63.2,0)" xlink:href="#bd"/><use transform="matrix(0.05,0,0,0.05,73.2,0)" xlink:href="#bp"/><use transform="matrix(0.05,0,0,0.05,78.2,0)" xlink:href="#be"/><use transform="matrix(0.05,0,0,0.05,87.2,0)" xlink:href="#bq"/></g><path fill="#333" d="M101-234c-31-9-42 10-38 44h38v23H63V0H32v-167H5v-23h27c-7-52 17-82 69-68v24" id="br"/><path fill="#333" d="M24-231v-30h32v30H24zM24 0v-190h32V0H24" id="bs"/><path fill="#333" d="M177-190C167-65 218 103 67 71c-23-6-38-20-44-43l32-5c15 47 100 32 89-28v-30C133-14 115 1 83 1 29 1 15-40 15-95c0-56 16-97 71-98 29-1 48 16 59 35 1-10 0-23 2-32h30zM94-22c36 0 50-32 50-73 0-42-14-75-50-75-39 0-46 34-46 75s6 73 46 73" id="bt"/><g id="x"><use transform="matrix(0.05,0,0,0.05,0,0)" xlink:href="#be"/><use transform="matrix(0.05,0,0,0.05,9,0)" xlink:href="#bk"/><use transform="matrix(0.05,0,0,0.05,19,0)" xlink:href="#bl"/><use transform="matrix(0.05,0,0,0.05,29,0)" xlink:href="#br"/><use transform="matrix(0.05,0,0,0.05,34,0)" xlink:href="#bs"/><use transform="matrix(0.05,0,0,0.05,37.95,0)" xlink:href="#bt"/></g><path fill="#333" d="M115-194c53 0 69 39 70 98 0 66-23 100-70 100C84 3 66-7 56-30L54 0H23l1-261h32v101c10-23 28-34 59-34zm-8 174c40 0 45-34 45-75 0-40-5-75-45-74-42 0-51 32-51 76 0 43 10 73 51 73" id="bu"/><path fill="#333" d="M100-194c63 0 86 42 84 106H49c0 40 14 67 53 68 26 1 43-12 49-29l28 8c-11 28-37 45-77 45C44 4 14-33 15-96c1-61 26-98 85-98zm52 81c6-60-76-77-97-28-3 7-6 17-6 28h103" id="bv"/><g id="y"><use transform="matrix(0.05,0,0,0.05,0,0)" xlink:href="#bu"/><use transform="matrix(0.05,0,0,0.05,10,0)" xlink:href="#bg"/><use transform="matrix(0.05,0,0,0.05,20,0)" xlink:href="#be"/><use transform="matrix(0.05,0,0,0.05,29,0)" xlink:href="#bf"/><use transform="matrix(0.05,0,0,0.05,38,0)" xlink:href="#bv"/><use transform="matrix(0.05,0,0,0.05,48,0)" xlink:href="#bp"/></g><path fill="#d86613" d="M30 0v-248h187v28H63v79h144v27H63v87h162V0H30" id="bw"/><path fill="#d86613" d="M212-179c-10-28-35-45-73-45-59 0-87 40-87 99 0 60 29 101 89 101 43 0 62-24 78-52l27 14C228-24 195 4 139 4 59 4 22-46 18-125c-6-104 99-153 187-111 19 9 31 26 39 46" id="bx"/><path fill="#d86613" d="M101-251c82-7 93 87 43 132L82-64C71-53 59-42 53-27h129V0H18c2-99 128-94 128-182 0-28-16-43-45-43s-46 15-49 41l-32-3c6-41 34-60 81-64" id="by"/><g id="z"><use transform="matrix(0.05,0,0,0.05,0,0)" xlink:href="#bw"/><use transform="matrix(0.05,0,0,0.05,12,0)" xlink:href="#bx"/><use transform="matrix(0.05,0,0,0.05,24.950000000000003,0)" xlink:href="#by"/></g><path fill="#d86613" d="M33 0v-248h34V0H33" id="bz"/><path fill="#d86613" d="M117-194c89-4 53 116 60 194h-32v-121c0-31-8-49-39-48C34-167 62-67 57 0H25l-1-190h30c1 10-1 24 2 32 11-22 29-35 61-36" id="bA"/><path fill="#d86613" d="M135-143c-3-34-86-38-87 0 15 53 115 12 119 90S17 21 10-45l28-5c4 36 97 45 98 0-10-56-113-15-118-90-4-57 82-63 122-42 12 7 21 19 24 35" id="bB"/><path fill="#d86613" d="M59-47c-2 24 18 29 38 22v24C64 9 27 4 27-40v-127H5v-23h24l9-43h21v43h35v23H59v120" id="bC"/><path fill="#d86613" d="M141-36C126-15 110 5 73 4 37 3 15-17 15-53c-1-64 63-63 125-63 3-35-9-54-41-54-24 1-41 7-42 31l-33-3c5-37 33-52 76-52 45 0 72 20 72 64v82c-1 20 7 32 28 27v20c-31 9-61-2-59-35zM48-53c0 20 12 33 32 33 41-3 63-29 60-74-43 2-92-5-92 41" id="bD"/><path fill="#d86613" d="M96-169c-40 0-48 33-48 73s9 75 48 75c24 0 41-14 43-38l32 2c-6 37-31 61-74 61-59 0-76-41-82-99-10-93 101-131 147-64 4 7 5 14 7 22l-32 3c-4-21-16-35-41-35" id="bE"/><path fill="#d86613" d="M100-194c63 0 86 42 84 106H49c0 40 14 67 53 68 26 1 43-12 49-29l28 8c-11 28-37 45-77 45C44 4 14-33 15-96c1-61 26-98 85-98zm52 81c6-60-76-77-97-28-3 7-6 17-6 28h103" id="bF"/><g id="A"><use transform="matrix(0.05,0,0,0.05,0,0)" xlink:href="#bz"/><use transform="matrix(0.05,0,0,0.05,5,0)" xlink:href="#bA"/><use transform="matrix(0.05,0,0,0.05,15,0)" xlink:href="#bB"/><use transform="matrix(0.05,0,0,0.05,24,0)" xlink:href="#bC"/><use transform="matrix(0.05,0,0,0.05,29,0)" xlink:href="#bD"/><use transform="matrix(0.05,0,0,0.05,39,0)" xlink:href="#bA"/><use transform="matrix(0.05,0,0,0.05,49,0)" xlink:href="#bE"/><use transform="matrix(0.05,0,0,0.05,58,0)" xlink:href="#bF"/></g><path fill="#d86613" d="M100-194c62-1 85 37 85 99 1 63-27 99-86 99S16-35 15-95c0-66 28-99 85-99zM99-20c44 1 53-31 53-75 0-43-8-75-51-75s-53 32-53 75 10 74 51 75" id="bG"/><g id="B"><use transform="matrix(0.05,0,0,0.05,0,0)" xlink:href="#bx"/><use transform="matrix(0.05,0,0,0.05,12.950000000000001,0)" xlink:href="#bG"/><use transform="matrix(0.05,0,0,0.05,22.950000000000003,0)" xlink:href="#bA"/><use transform="matrix(0.05,0,0,0.05,32.95,0)" xlink:href="#bC"/><use transform="matrix(0.05,0,0,0.05,37.95,0)" xlink:href="#bF"/><use transform="matrix(0.05,0,0,0.05,47.95,0)" xlink:href="#bA"/><use transform="matrix(0.05,0,0,0.05,57.95,0)" xlink:href="#bC"/><use transform="matrix(0.05,0,0,0.05,62.95,0)" xlink:href="#bB"/></g><path fill="#333" d="M114-163C36-179 61-72 57 0H25l-1-190h30c1 12-1 29 2 39 6-27 23-49 58-41v29" id="bH"/><path fill="#333" d="M16-82v-28h88v28H16" id="bI"/><g id="C"><use transform="matrix(0.05,0,0,0.05,0,0)" xlink:href="#be"/><use transform="matrix(0.05,0,0,0.05,9,0)" xlink:href="#bd"/><use transform="matrix(0.05,0,0,0.05,19,0)" xlink:href="#bH"/><use transform="matrix(0.05,0,0,0.05,24.95,0)" xlink:href="#bo"/><use transform="matrix(0.05,0,0,0.05,34.95,0)" xlink:href="#bd"/><use transform="matrix(0.05,0,0,0.05,44.95,0)" xlink:href="#bl"/><use transform="matrix(0.05,0,0,0.05,54.95,0)" xlink:href="#bk"/><use transform="matrix(0.05,0,0,0.05,64.95,0)" xlink:href="#bI"/><use transform="matrix(0.05,0,0,0.05,70.9,0)" xlink:href="#bl"/><use transform="matrix(0.05,0,0,0.05,80.9,0)" xlink:href="#bk"/><use transform="matrix(0.05,0,0,0.05,90.9,0)" xlink:href="#bo"/><use transform="matrix(0.05,0,0,0.05,100.9,0)" xlink:href="#bv"/></g><g id="D"><use transform="matrix(0.05,0,0,0.05,0,0)" xlink:href="#be"/><use transform="matrix(0.05,0,0,0.05,9,0)" xlink:href="#bk"/><use transform="matrix(0.05,0,0,0.05,19,0)" xlink:href="#bl"/><use transform="matrix(0.05,0,0,0.05,29,0)" xlink:href="#bp"/><use transform="matrix(0.05,0,0,0.05,34,0)" xlink:href="#bd"/><use transform="matrix(0.05,0,0,0.05,44,0)" xlink:href="#bs"/><use transform="matrix(0.05,0,0,0.05,47.95,0)" xlink:href="#bl"/><use transform="matrix(0.05,0,0,0.05,57.95,0)" xlink:href="#bv"/><use transform="matrix(0.05,0,0,0.05,67.95,0)" xlink:href="#bH"/></g><path fill="#333" d="M30 0v-248h187v28H63v79h144v27H63v87h162V0H30" id="bJ"/><g id="E"><use transform="matrix(0.05,0,0,0.05,0,0)" xlink:href="#bJ"/><use transform="matrix(0.05,0,0,0.05,12,0)" xlink:href="#bc"/><use transform="matrix(0.05,0,0,0.05,24,0)" xlink:href="#bb"/></g><path fill="#333" d="M108 0H70L1-190h34L89-25l56-165h34" id="bK"/><g id="F"><use transform="matrix(0.05,0,0,0.05,0,0)" xlink:href="#bK"/><use transform="matrix(0.05,0,0,0.05,9,0)" xlink:href="#bk"/><use transform="matrix(0.05,0,0,0.05,19,0)" xlink:href="#bn"/><use transform="matrix(0.05,0,0,0.05,22.95,0)" xlink:href="#bg"/><use transform="matrix(0.05,0,0,0.05,32.95,0)" xlink:href="#bi"/><use transform="matrix(0.05,0,0,0.05,47.900000000000006,0)" xlink:href="#bv"/></g><path fill="#333" d="M33 0v-248h34V0H33" id="bL"/><path fill="#333" d="M240 0l2-218c-23 76-54 145-80 218h-23L58-218 59 0H30v-248h44l77 211c21-75 51-140 76-211h43V0h-30" id="bM"/><g id="G"><use transform="matrix(0.05,0,0,0.05,0,0)" xlink:href="#bL"/><use transform="matrix(0.05,0,0,0.05,5,0)" xlink:href="#aZ"/><use transform="matrix(0.05,0,0,0.05,17,0)" xlink:href="#bM"/></g><g id="H"><use transform="matrix(0.05,0,0,0.05,0,0)" xlink:href="#bH"/><use transform="matrix(0.05,0,0,0.05,5.95,0)" xlink:href="#bk"/><use transform="matrix(0.05,0,0,0.05,15.949999999999998,0)" xlink:href="#bn"/><use transform="matrix(0.05,0,0,0.05,19.9,0)" xlink:href="#bv"/></g></defs></g></svg>
